name analog
datacolumns 19
datarows 45
range 0.47000000000000003 0.492
endheader
time	ground_force_vx	ground_force_vy	ground_force_vz	ground_force_px	ground_force_py	ground_force_pz	l_ground_force_vx	l_ground_force_vy	l_ground_force_vz	l_ground_force_px	l_ground_force_py	l_ground_force_pz	ground_torque_x	ground_torque_y	ground_torque_z	l_ground_torque_x	l_ground_torque_y	l_ground_torque_z
0.47000000000000003	-0.0	-0.0	-0.0	-0.881052553653717	62.84798049926758	-319.7008056640625	-1.7671093940734863	-59.345096588134766	-294.36279296875	-0.0	-0.0	-0.0	-0.0	-0.0	-0.0	60138.890625	493.614501953125	-1350.0240478515625
0.47050000000000003	-0.0	-0.0	-0.0	-1.0554574728012085	63.182167053222656	-318.9364318847656	-2.1363301277160645	-59.34493255615234	-293.3446044921875	-0.0	-0.0	-0.0	-0.0	-0.0	-0.0	59797.37109375	470.3931274414063	-1236.4658203125
0.47100000000000003	-0.0	-0.0	-0.0	-0.8921051025390625	62.57332229614258	-319.3196105957031	-2.125405788421631	-59.160980224609375	-295.2528686523437	-0.0	-0.0	-0.0	-0.0	-0.0	-0.0	60047.16015625	650.7438354492188	-1465.190185546875
0.47150000000000003	-0.0	-0.0	-0.0	-0.4731249809265136	63.09273147583008	-322.4992370605469	-2.476430654525757	-58.98028945922852	-292.8941345214844	-0.0	-0.0	-0.0	-0.0	-0.0	-0.0	59724.62109375	579.802978515625	-1439.366943359375
0.47200000000000003	-0.0	-0.0	-0.0	-0.356842041015625	62.77508544921875	-322.42242431640625	-2.8387451171875	-58.7226676940918	-292.23992919921875	-0.0	-0.0	-0.0	-0.0	-0.0	-0.0	59629.9453125	840.5999145507812	-1554.4237060546875
0.47250000000000003	-0.0	-0.0	-0.0	-1.0783624649047852	63.27083969116211	-322.19317626953125	-2.510406494140625	-58.55728149414063	-290.2046203613281	-0.0	-0.0	-0.0	-0.0	-0.0	-0.0	59171.296875	635.4466552734375	-1619.783203125
0.47300000000000003	-0.0	-0.0	-0.0	-0.6444794535636902	63.12431335449219	-321.1514587402344	-3.035511016845703	-58.97577667236328	-290.873779296875	-0.0	-0.0	-0.0	-0.0	-0.0	-0.0	59510.78515625	897.4957885742188	-1616.409423828125
0.47350000000000003	-0.0	-0.0	-0.0	-0.7298249006271362	63.03535461425781	-324.1552734375	-3.0122642517089844	-58.13509750366211	-291.5416259765625	-0.0	-0.0	-0.0	-0.0	-0.0	-0.0	59143.3515625	721.8970947265625	-1765.781982421875
0.47400000000000003	-0.0	-0.0	-0.0	-0.7866792678833008	63.03544998168945	-324.55633544921875	-3.355325698852539	-58.21570587158203	-291.1615905761719	-0.0	-0.0	-0.0	-0.0	-0.0	-0.0	59075.69921875	1388.04150390625	-1742.93212890625
0.47450000000000003	-0.0	-0.0	-0.0	-1.0581157207489014	63.14978790283203	-324.12091064453125	-3.104877471923828	-58.28832626342773	-289.4467163085937	-0.0	-0.0	-0.0	-0.0	-0.0	-0.0	59078.43359375	1126.074951171875	-1803.549560546875
0.47500000000000003	-0.0	-0.0	-0.0	-1.066371202468872	63.28673553466797	-324.63818359375	-3.1855452060699463	-58.39265060424805	-290.7958374023437	-0.0	-0.0	-0.0	-0.0	-0.0	-0.0	58962.08984375	1238.3131103515625	-1973.5792236328125
0.47550000000000003	-0.0	-0.0	-0.0	-1.1427849531173706	63.53304290771485	-324.2695007324219	-3.4597206115722656	-58.80181121826172	-288.3830871582031	-0.0	-0.0	-0.0	-0.0	-0.0	-0.0	58977.015625	1270.0010986328125	-1944.1864013671875
0.47600000000000003	-0.0	-0.0	-0.0	-0.8071655035018921	63.032264709472656	-324.55548095703125	-3.620593786239624	-58.30055236816406	-289.4467163085937	-0.0	-0.0	-0.0	-0.0	-0.0	-0.0	58701.3828125	1274.875	-1944.1624755859373
0.47650000000000003	-0.0	-0.0	-0.0	-0.7394176721572876	63.3631477355957	-323.88299560546875	-3.7216975688934326	-58.72565078735352	-289.1793212890625	-0.0	-0.0	-0.0	-0.0	-0.0	-0.0	58784.59375	1596.474853515625	-2098.214599609375
0.47700000000000004	-0.0	-0.0	-0.0	-1.2708066701889038	63.29132080078125	-326.6741638183594	-3.987747430801392	-58.79692840576172	-289.1142272949219	-0.0	-0.0	-0.0	-0.0	-0.0	-0.0	59030.66796875	1528.8079833984375	-2239.739501953125
0.47750000000000004	-0.0	-0.0	-0.0	-1.512173771858215	63.206661224365234	-324.97784423828125	-3.996255874633789	-58.30506896972656	-287.7177429199219	-0.0	-0.0	-0.0	-0.0	-0.0	-0.0	59002.37890625	1647.0418701171875	-2300.354736328125
0.47800000000000004	-0.0	-0.0	-0.0	-1.9626312255859373	62.96143341064453	-327.6458740234375	-4.359700679779053	-58.89348220825195	-288.7484130859375	-0.0	-0.0	-0.0	-0.0	-0.0	-0.0	58724.66015625	1615.912353515625	-2331.8544921875
0.47850000000000004	-0.0	-0.0	-0.0	-2.314965009689331	63.09531784057617	-325.7746887207031	-4.772889614105225	-58.47330856323242	-286.4075927734375	-0.0	-0.0	-0.0	-0.0	-0.0	-0.0	58620.8515625	1833.3836669921875	-2400.14404296875
0.47900000000000004	-0.0	-0.0	-0.0	-2.3104193210601807	62.84146118164063	-327.04461669921875	-5.380615711212158	-59.06534957885742	-289.0629577636719	-0.0	-0.0	-0.0	-0.0	-0.0	-0.0	58728.00390625	1582.1153564453125	-2509.14013671875
0.47950000000000004	-0.0	-0.0	-0.0	-2.399463891983032	62.747802734375	-326.07635498046875	-5.140751361846924	-58.62778091430664	-288.3464050292969	-0.0	-0.0	-0.0	-0.0	-0.0	-0.0	58323.83984375	1874.3763427734373	-2480.662841796875
0.48	-0.0	-0.0	-0.0	-2.493250846862793	63.17954254150391	-327.3426818847656	-4.967803955078125	-58.73841094970703	-287.298583984375	-0.0	-0.0	-0.0	-0.0	-0.0	-0.0	58447.953125	1877.6962890625	-2625.87353515625
0.4805	-0.0	-0.0	-0.0	-2.3241353034973145	62.85091018676758	-326.7099304199219	-5.056514739990234	-58.645599365234375	-287.6474914550781	-0.0	-0.0	-0.0	-0.0	-0.0	-0.0	58172.28125	1762.410400390625	-2489.688232421875
0.481	-0.0	-0.0	-0.0	-2.8310117721557617	63.193458557128906	-327.65704345703125	-5.402141094207764	-58.49648666381836	-287.9594116210937	-0.0	-0.0	-0.0	-0.0	-0.0	-0.0	57979.86328125	1865.6041259765625	-2632.217529296875
0.4815	-0.0	-0.0	-0.0	-2.9439468383789062	62.67300033569336	-328.6781311035156	-5.402073860168457	-58.72468185424805	-284.9808044433594	-0.0	-0.0	-0.0	-0.0	-0.0	-0.0	58178.12890625	1972.0416259765625	-2691.6259765625
0.482	-0.0	-0.0	-0.0	-2.577512264251709	63.179080963134766	-328.6966247558594	-5.416017532348633	-58.636322021484375	-284.8343505859375	-0.0	-0.0	-0.0	-0.0	-0.0	-0.0	57978.55078125	1879.2877197265625	-2829.0380859375
0.4825	-0.0	-0.0	-0.0	-2.864494800567627	62.76730346679688	-328.4959716796875	-5.93413782119751	-58.46895599365234	-286.6161804199219	-0.0	-0.0	-0.0	-0.0	-0.0	-0.0	57842.1171875	2294.916259765625	-2723.25634765625
0.483	-0.0	-0.0	-0.0	-2.344035387039185	62.84184646606445	-329.4391174316406	-5.761425971984863	-58.2230110168457	-283.5111083984375	-0.0	-0.0	-0.0	-0.0	-0.0	-0.0	57947.734375	2187.268798828125	-2812.09619140625
0.4835	-0.0	-0.0	-0.0	-2.597095489501953	62.58451461791992	-327.671875	-5.924191951751709	-58.44477462768555	-286.208740234375	-0.0	-0.0	-0.0	-0.0	-0.0	-0.0	57598.28515625	2126.98974609375	-2865.181640625
0.484	-0.0	-0.0	-0.0	-3.0281431674957275	62.40129852294922	-329.3779602050781	-5.672614097595215	-58.26803970336914	-285.82086181640625	-0.0	-0.0	-0.0	-0.0	-0.0	-0.0	57955.421875	2428.453857421875	-2784.112548828125
0.4845	-0.0	-0.0	-0.0	-2.854736328125	62.47538757324219	-332.12322998046875	-6.01765251159668	-58.10592651367188	-283.5688781738281	-0.0	-0.0	-0.0	-0.0	-0.0	-0.0	58084.171875	2518.706298828125	-2871.695556640625
0.485	-0.0	-0.0	-0.0	-2.497894287109375	62.89029693603516	-328.9117736816406	-5.776153564453125	-58.0174446105957	-283.82110595703125	-0.0	-0.0	-0.0	-0.0	-0.0	-0.0	57804.40234375	2199.1904296875	-3014.912353515625
0.4855	-0.0	-0.0	-0.0	-3.2596077919006348	62.26445007324219	-329.7885437011719	-5.687509536743164	-57.99243927001953	-282.8719482421875	-0.0	-0.0	-0.0	-0.0	-0.0	-0.0	57930.625	2265.329833984375	-2812.22021484375
0.486	-0.0	-0.0	-0.0	-2.607775449752808	62.747802734375	-330.8887023925781	-5.943622589111328	-57.77239608764648	-285.25689697265625	-0.0	-0.0	-0.0	-0.0	-0.0	-0.0	57982.40234375	1909.3621826171875	-2985.305419921875
0.4865	-0.0	-0.0	-0.0	-2.513646125793457	62.54855728149414	-332.737060546875	-5.8702473640441895	-57.67406463623047	-286.2037353515625	-0.0	-0.0	-0.0	-0.0	-0.0	-0.0	57919.04296875	2304.32177734375	-3011.473388671875
0.487	-0.0	-0.0	-0.0	-2.576566457748413	62.46988677978516	-333.02783203125	-5.771331310272217	-57.93391799926758	-284.8471374511719	-0.0	-0.0	-0.0	-0.0	-0.0	-0.0	58122.84765625	2090.202392578125	-3067.35400390625
0.4875	-0.0	-0.0	-0.0	-2.7227091789245605	62.47506713867188	-334.6026916503906	-5.3226470947265625	-57.58055114746094	-284.88720703125	-0.0	-0.0	-0.0	-0.0	-0.0	-0.0	57920.62109375	2512.135986328125	-2977.842529296875
0.488	-0.0	-0.0	-0.0	-2.5978729724884038	62.72090530395508	-333.4444885253906	-5.833932399749756	-57.50264358520508	-286.3456115722656	-0.0	-0.0	-0.0	-0.0	-0.0	-0.0	58049.40625	2094.225341796875	-2948.4794921875
0.4885	-0.0	-0.0	-0.0	-2.827726364135742	62.56414413452149	-334.41864013671875	-5.828598976135254	-57.49217987060547	-285.38116455078125	-0.0	-0.0	-0.0	-0.0	-0.0	-0.0	58172.359375	2309.767822265625	-2901.439453125
0.489	-0.0	-0.0	-0.0	-2.670830249786377	62.39128112792969	-333.3584289550781	-5.3226470947265625	-57.564453125	-286.3043212890625	-0.0	-0.0	-0.0	-0.0	-0.0	-0.0	58184.90625	2334.474365234375	-2923.695556640625
0.4895	-0.0	-0.0	-0.0	-2.659759044647217	62.14043426513672	-333.73321533203125	-5.483932971954346	-57.83464431762695	-285.6907043457031	-0.0	-0.0	-0.0	-0.0	-0.0	-0.0	57881.35546875	2157.915283203125	-2894.203369140625
0.49	-0.0	-0.0	-0.0	-2.52004075050354	62.280029296875	-333.75506591796875	-5.072703838348389	-57.59111022949219	-285.36309814453125	-0.0	-0.0	-0.0	-0.0	-0.0	-0.0	58623.7734375	2191.198974609375	-2892.038818359375
0.4905	-0.0	-0.0	-0.0	-2.2583606243133545	62.22425079345703	-333.7773132324219	-5.134267807006836	-57.29350280761719	-285.2784729003906	-0.0	-0.0	-0.0	-0.0	-0.0	-0.0	58429.28515625	2122.632080078125	-2841.783935546875
0.491	-0.0	-0.0	-0.0	-2.330750703811645	62.21302032470703	-333.4911499023437	-4.89008903503418	-57.06675720214844	-286.56695556640625	-0.0	-0.0	-0.0	-0.0	-0.0	-0.0	57980.08984375	2333.122314453125	-2871.236083984375
0.4915	-0.0	-0.0	-0.0	-2.575661420822144	62.04047775268555	-334.7239685058594	-4.973384380340576	-57.50297546386719	-285.62799072265625	-0.0	-0.0	-0.0	-0.0	-0.0	-0.0	58441.1171875	2011.7462158203125	-2815.892578125
0.492	-0.0	-0.0	-0.0	-2.5986130237579346	62.19002532958984	-334.4386291503906	-4.629799842834473	-57.309600830078125	-285.7385559082031	-0.0	-0.0	-0.0	-0.0	-0.0	-0.0	58162.2578125	2052.878662109375	-2893.38427734375
